<svg width="720" height="620" viewBox="0 0 720 620" fill="none" xmlns="http://www.w3.org/2000/svg"><g fill="#8AF3FF"><circle cx="80" cy="120" r="2" opacity=".5"/><circle cx="140" cy="280" r="3" opacity=".4"/><circle cx="260" cy="90" r="2" opacity=".7"/><circle cx="390" cy="160" r="2" opacity=".45"/><circle cx="510" cy="72" r="3" opacity=".5"/><circle cx="620" cy="210" r="2" opacity=".55"/><circle cx="690" cy="330" r="3" opacity=".35"/><circle cx="550" cy="430" r="2" opacity=".55"/><circle cx="420" cy="520" r="2" opacity=".65"/><circle cx="260" cy="460" r="3" opacity=".38"/><circle cx="145" cy="520" r="2" opacity=".55"/></g><g stroke="#00D8FF" stroke-opacity=".16"><path d="M40 500C150 440 230 455 335 480C430 502 520 480 680 410"/><path d="M80 90C190 130 230 150 360 120C500 88 570 130 690 105"/></g></svg>